<svg width="40" height="40" viewBox="0 0 40 40" fill="none" xmlns="http://www.w3.org/2000/svg">
<mask id="mask0_258_13" style="mask-type:alpha" maskUnits="userSpaceOnUse" x="0" y="0" width="40" height="40">
<rect width="40" height="40" fill="#D9D9D9"/>
</mask>
<g mask="url(#mask0_258_13)">
<path d="M8.33337 36.6667C7.41671 36.6667 6.63198 36.3403 5.97921 35.6875C5.32643 35.0347 5.00004 34.25 5.00004 33.3333V14.5417C4.50004 14.2361 4.09726 13.8403 3.79171 13.3542C3.48615 12.8681 3.33337 12.3056 3.33337 11.6667V6.66668C3.33337 5.75001 3.65976 4.96529 4.31254 4.31251C4.96532 3.65973 5.75004 3.33334 6.66671 3.33334H33.3334C34.25 3.33334 35.0348 3.65973 35.6875 4.31251C36.3403 4.96529 36.6667 5.75001 36.6667 6.66668V11.6667C36.6667 12.3056 36.5139 12.8681 36.2084 13.3542C35.9028 13.8403 35.5 14.2361 35 14.5417V33.3333C35 34.25 34.6737 35.0347 34.0209 35.6875C33.3681 36.3403 32.5834 36.6667 31.6667 36.6667H8.33337ZM8.33337 15V33.3333H31.6667V15H8.33337ZM6.66671 11.6667H33.3334V6.66668H6.66671V11.6667ZM15 20H20H25H15Z" fill="white"/>
<path d="M19.0477 25.2891H13.3334V23.3843H19.0477V17.67H20.9524V23.3843H26.6667V25.2891H20.9524V31.0033H19.0477V25.2891Z" fill="white"/>
</g>
</svg>
