<svg width="24" height="24" viewBox="0 0 24 24" fill="none" xmlns="http://www.w3.org/2000/svg">
<mask id="mask0_314_148" style="mask-type:alpha" maskUnits="userSpaceOnUse" x="0" y="0" width="24" height="24">
<rect width="24" height="24" fill="#D9D9D9"/>
</mask>
<g mask="url(#mask0_314_148)">
<path d="M6 21.4939C5.45 21.4939 4.97917 21.2989 4.5875 20.909C4.19583 20.5192 4 20.0505 4 19.503V9.54857C4 9.00107 4.19583 8.53239 4.5875 8.14251C4.97917 7.75263 5.45 7.55768 6 7.55768H7V5.5668C7 4.18978 7.4875 3.01599 8.4625 2.04543C9.4375 1.07488 10.6167 0.5896 12 0.5896C13.3833 0.5896 14.5625 1.07488 15.5375 2.04543C16.5125 3.01599 17 4.18978 17 5.5668V7.55768H18C18.55 7.55768 19.0208 7.75263 19.4125 8.14251C19.8042 8.53239 20 9.00107 20 9.54857V19.503C20 20.0505 19.8042 20.5192 19.4125 20.909C19.0208 21.2989 18.55 21.4939 18 21.4939H6ZM12 16.5167C12.55 16.5167 13.0208 16.3217 13.4125 15.9318C13.8042 15.5419 14 15.0733 14 14.5258C14 13.9783 13.8042 13.5096 13.4125 13.1197C13.0208 12.7298 12.55 12.5349 12 12.5349C11.45 12.5349 10.9792 12.7298 10.5875 13.1197C10.1958 13.5096 10 13.9783 10 14.5258C10 15.0733 10.1958 15.5419 10.5875 15.9318C10.9792 16.3217 11.45 16.5167 12 16.5167ZM9 7.55768H15V5.5668C15 4.73727 14.7083 4.03217 14.125 3.45149C13.5417 2.87082 12.8333 2.58048 12 2.58048C11.1667 2.58048 10.4583 2.87082 9.875 3.45149C9.29167 4.03217 9 4.73727 9 5.5668V7.55768Z" fill="white"/>
</g>
</svg>
