<svg width="40" height="40" viewBox="0 0 40 40" fill="none" xmlns="http://www.w3.org/2000/svg">
<mask id="mask0_259_40" style="mask-type:alpha" maskUnits="userSpaceOnUse" x="0" y="0" width="40" height="40">
<rect width="40" height="40" fill="#D9D9D9"/>
</mask>
<g mask="url(#mask0_259_40)">
<path d="M26.6667 35L26.1667 32.5C25.8334 32.3611 25.5209 32.2153 25.2292 32.0625C24.9375 31.9097 24.6389 31.7222 24.3334 31.5L21.9167 32.25L20.25 29.4167L22.1667 27.75C22.1112 27.3611 22.0834 27 22.0834 26.6667C22.0834 26.3333 22.1112 25.9722 22.1667 25.5833L20.25 23.9167L21.9167 21.0833L24.3334 21.8333C24.6389 21.6111 24.9375 21.4236 25.2292 21.2708C25.5209 21.118 25.8334 20.9722 26.1667 20.8333L26.6667 18.3333H30L30.5 20.8333C30.8334 20.9722 31.1459 21.125 31.4375 21.2917C31.7292 21.4583 32.0278 21.6667 32.3334 21.9167L34.75 21.0833L36.4167 24L34.5 25.6667C34.5556 26 34.5834 26.3472 34.5834 26.7083C34.5834 27.0694 34.5556 27.4167 34.5 27.75L36.4167 29.4167L34.75 32.25L32.3334 31.5C32.0278 31.7222 31.7292 31.9097 31.4375 32.0625C31.1459 32.2153 30.8334 32.3611 30.5 32.5L30 35H26.6667ZM3.33337 33.3333V28.6667C3.33337 27.75 3.56949 26.8889 4.04171 26.0833C4.51393 25.2778 5.16671 24.6667 6.00004 24.25C7.41671 23.5278 9.01393 22.9167 10.7917 22.4167C12.5695 21.9167 14.5278 21.6667 16.6667 21.6667H17.25C17.4167 21.6667 17.5834 21.6944 17.75 21.75C16.9445 23.75 16.6112 25.7361 16.75 27.7083C16.8889 29.6805 17.5556 31.5555 18.75 33.3333H3.33337ZM28.3334 30C29.25 30 30.0348 29.6736 30.6875 29.0208C31.3403 28.368 31.6667 27.5833 31.6667 26.6667C31.6667 25.75 31.3403 24.9653 30.6875 24.3125C30.0348 23.6597 29.25 23.3333 28.3334 23.3333C27.4167 23.3333 26.632 23.6597 25.9792 24.3125C25.3264 24.9653 25 25.75 25 26.6667C25 27.5833 25.3264 28.368 25.9792 29.0208C26.632 29.6736 27.4167 30 28.3334 30ZM16.6667 20C14.8334 20 13.2639 19.3472 11.9584 18.0417C10.6528 16.7361 10 15.1667 10 13.3333C10 11.5 10.6528 9.93055 11.9584 8.62499C13.2639 7.31943 14.8334 6.66666 16.6667 6.66666C18.5 6.66666 20.0695 7.31943 21.375 8.62499C22.6806 9.93055 23.3334 11.5 23.3334 13.3333C23.3334 15.1667 22.6806 16.7361 21.375 18.0417C20.0695 19.3472 18.5 20 16.6667 20Z" fill="white"/>
</g>
</svg>
