<svg width="50" height="50" viewBox="0 0 50 50" fill="none" xmlns="http://www.w3.org/2000/svg">
<mask id="mask0_347_28" style="mask-type:alpha" maskUnits="userSpaceOnUse" x="0" y="0" width="50" height="50">
<rect width="50" height="50" fill="#D9D9D9"/>
</mask>
<g mask="url(#mask0_347_28)">
<path d="M32.2918 22.9167C33.1598 22.9167 33.8977 22.6129 34.5053 22.0052C35.1129 21.3976 35.4168 20.6597 35.4168 19.7917C35.4168 18.9236 35.1129 18.1858 34.5053 17.5781C33.8977 16.9705 33.1598 16.6667 32.2918 16.6667C31.4237 16.6667 30.6858 16.9705 30.0782 17.5781C29.4706 18.1858 29.1667 18.9236 29.1667 19.7917C29.1667 20.6597 29.4706 21.3976 30.0782 22.0052C30.6858 22.6129 31.4237 22.9167 32.2918 22.9167ZM17.7084 22.9167C18.5765 22.9167 19.3143 22.6129 19.922 22.0052C20.5296 21.3976 20.8334 20.6597 20.8334 19.7917C20.8334 18.9236 20.5296 18.1858 19.922 17.5781C19.3143 16.9705 18.5765 16.6667 17.7084 16.6667C16.8404 16.6667 16.1025 16.9705 15.4949 17.5781C14.8872 18.1858 14.5834 18.9236 14.5834 19.7917C14.5834 20.6597 14.8872 21.3976 15.4949 22.0052C16.1025 22.6129 16.8404 22.9167 17.7084 22.9167ZM25.0001 28.125C22.639 28.125 20.4949 28.7934 18.5678 30.1302C16.6407 31.467 15.2431 33.2292 14.3751 35.4167H17.8126C18.5765 34.132 19.5921 33.1163 20.8595 32.3698C22.1268 31.6233 23.507 31.25 25.0001 31.25C26.4931 31.25 27.8733 31.6233 29.1407 32.3698C30.4081 33.1163 31.4237 34.132 32.1876 35.4167H35.6251C34.757 33.2292 33.3595 31.467 31.4324 30.1302C29.5053 28.7934 27.3612 28.125 25.0001 28.125ZM25.0001 45.8334C22.1181 45.8334 19.4098 45.2865 16.8751 44.1927C14.3404 43.099 12.1355 41.6146 10.2605 39.7396C8.3855 37.8646 6.90112 35.6597 5.80737 33.125C4.71362 30.5903 4.16675 27.882 4.16675 25C4.16675 22.1181 4.71362 19.4097 5.80737 16.875C6.90112 14.3403 8.3855 12.1354 10.2605 10.2604C12.1355 8.38544 14.3404 6.90106 16.8751 5.80731C19.4098 4.71356 22.1181 4.16669 25.0001 4.16669C27.882 4.16669 30.5904 4.71356 33.1251 5.80731C35.6598 6.90106 37.8647 8.38544 39.7397 10.2604C41.6147 12.1354 43.099 14.3403 44.1928 16.875C45.2865 19.4097 45.8334 22.1181 45.8334 25C45.8334 27.882 45.2865 30.5903 44.1928 33.125C43.099 35.6597 41.6147 37.8646 39.7397 39.7396C37.8647 41.6146 35.6598 43.099 33.1251 44.1927C30.5904 45.2865 27.882 45.8334 25.0001 45.8334Z" fill="black"/>
</g>
</svg>
