<svg width="24" height="24" viewBox="0 0 24 24" fill="none" xmlns="http://www.w3.org/2000/svg">
<mask id="mask0_314_132" style="mask-type:alpha" maskUnits="userSpaceOnUse" x="0" y="0" width="24" height="24">
<rect width="24" height="24" fill="#D9D9D9"/>
</mask>
<g mask="url(#mask0_314_132)">
<path d="M9.4 16.019L12 13.4309L14.6 16.019L16 14.6254L13.4 12.0373L16 9.44911L14.6 8.05549L12 10.6436L9.4 8.05549L8 9.44911L10.6 12.0373L8 14.6254L9.4 16.019ZM7 20.4985C6.45 20.4985 5.97917 20.3036 5.5875 19.9137C5.19583 19.5238 5 19.0551 5 18.5076V5.56689H4V3.57601H9V2.58057H15V3.57601H20V5.56689H19V18.5076C19 19.0551 18.8042 19.5238 18.4125 19.9137C18.0208 20.3036 17.55 20.4985 17 20.4985H7Z" fill="white"/>
</g>
</svg>
