<svg width="24" height="24" viewBox="0 0 24 24" fill="none" xmlns="http://www.w3.org/2000/svg">
<mask id="mask0_314_140" style="mask-type:alpha" maskUnits="userSpaceOnUse" x="0" y="0" width="24" height="24">
<rect width="24" height="24" fill="#D9D9D9"/>
</mask>
<g mask="url(#mask0_314_140)">
<path d="M3 20.4985V16.2679L16.2 3.15294C16.4 2.97045 16.6208 2.82943 16.8625 2.72988C17.1042 2.63034 17.3583 2.58057 17.625 2.58057C17.8917 2.58057 18.15 2.63034 18.4 2.72988C18.65 2.82943 18.8667 2.97874 19.05 3.17783L20.425 4.57145C20.625 4.75395 20.7708 4.96962 20.8625 5.21848C20.9542 5.46734 21 5.7162 21 5.96506C21 6.23052 20.9542 6.48352 20.8625 6.72409C20.7708 6.96465 20.625 7.18448 20.425 7.38357L7.25 20.4985H3ZM17.6 7.35868L19 5.96506L17.6 4.57145L16.2 5.96506L17.6 7.35868Z" fill="white"/>
</g>
</svg>
