<svg width="40" height="40" viewBox="0 0 40 40" fill="none" xmlns="http://www.w3.org/2000/svg">
<mask id="mask0_220_20" style="mask-type:alpha" maskUnits="userSpaceOnUse" x="0" y="0" width="40" height="40">
<rect width="40" height="40" fill="#D9D9D9"/>
</mask>
<g mask="url(#mask0_220_20)">
<path d="M6.66663 35V19.375L3.66663 21.6667L1.66663 19L20 5L38.3333 19L36.3333 21.625L33.3333 19.375V35H6.66663ZM13.3333 25C12.8611 25 12.4652 24.8403 12.1458 24.5208C11.8263 24.2014 11.6666 23.8056 11.6666 23.3333C11.6666 22.8611 11.8263 22.4653 12.1458 22.1458C12.4652 21.8264 12.8611 21.6667 13.3333 21.6667C13.8055 21.6667 14.2013 21.8264 14.5208 22.1458C14.8402 22.4653 15 22.8611 15 23.3333C15 23.8056 14.8402 24.2014 14.5208 24.5208C14.2013 24.8403 13.8055 25 13.3333 25ZM20 25C19.5277 25 19.1319 24.8403 18.8125 24.5208C18.493 24.2014 18.3333 23.8056 18.3333 23.3333C18.3333 22.8611 18.493 22.4653 18.8125 22.1458C19.1319 21.8264 19.5277 21.6667 20 21.6667C20.4722 21.6667 20.868 21.8264 21.1875 22.1458C21.5069 22.4653 21.6666 22.8611 21.6666 23.3333C21.6666 23.8056 21.5069 24.2014 21.1875 24.5208C20.868 24.8403 20.4722 25 20 25ZM26.6666 25C26.1944 25 25.7986 24.8403 25.4791 24.5208C25.1597 24.2014 25 23.8056 25 23.3333C25 22.8611 25.1597 22.4653 25.4791 22.1458C25.7986 21.8264 26.1944 21.6667 26.6666 21.6667C27.1388 21.6667 27.5347 21.8264 27.8541 22.1458C28.1736 22.4653 28.3333 22.8611 28.3333 23.3333C28.3333 23.8056 28.1736 24.2014 27.8541 24.5208C27.5347 24.8403 27.1388 25 26.6666 25Z" fill="white"/>
</g>
</svg>
