<svg width="40" height="40" viewBox="0 0 40 40" fill="none" xmlns="http://www.w3.org/2000/svg">
<mask id="mask0_258_34" style="mask-type:alpha" maskUnits="userSpaceOnUse" x="0" y="0" width="40" height="40">
<rect width="40" height="40" fill="#D9D9D9"/>
</mask>
<g mask="url(#mask0_258_34)">
<path d="M20 21.6667C18.3611 21.6667 16.9791 21.1042 15.8541 19.9792C14.7291 18.8542 14.1666 17.4722 14.1666 15.8333C14.1666 14.1945 14.7291 12.8125 15.8541 11.6875C16.9791 10.5625 18.3611 10 20 10C21.6388 10 23.0208 10.5625 24.1458 11.6875C25.2708 12.8125 25.8333 14.1945 25.8333 15.8333C25.8333 17.4722 25.2708 18.8542 24.1458 19.9792C23.0208 21.1042 21.6388 21.6667 20 21.6667ZM20 18.3333C20.7222 18.3333 21.3194 18.0972 21.7916 17.625C22.2638 17.1528 22.5 16.5556 22.5 15.8333C22.5 15.1111 22.2638 14.5139 21.7916 14.0417C21.3194 13.5695 20.7222 13.3333 20 13.3333C19.2777 13.3333 18.6805 13.5695 18.2083 14.0417C17.7361 14.5139 17.5 15.1111 17.5 15.8333C17.5 16.5556 17.7361 17.1528 18.2083 17.625C18.6805 18.0972 19.2777 18.3333 20 18.3333ZM20 36.6667C16.1388 35.6945 12.9513 33.4792 10.4375 30.0208C7.92357 26.5625 6.66663 22.7222 6.66663 18.5V8.33334L20 3.33334L33.3333 8.33334V18.5C33.3333 22.7222 32.0763 26.5625 29.5625 30.0208C27.0486 33.4792 23.8611 35.6945 20 36.6667ZM20 6.87501L9.99996 10.625V18.5C9.99996 20 10.2083 21.4583 10.625 22.875C11.0416 24.2917 11.6111 25.625 12.3333 26.875C13.5 26.2917 14.7222 25.8333 16 25.5C17.2777 25.1667 18.6111 25 20 25C21.3888 25 22.7222 25.1667 24 25.5C25.2777 25.8333 26.5 26.2917 27.6666 26.875C28.3888 25.625 28.9583 24.2917 29.375 22.875C29.7916 21.4583 30 20 30 18.5V10.625L20 6.87501ZM20 28.3333C19 28.3333 18.0277 28.4445 17.0833 28.6667C16.1388 28.8889 15.2361 29.1945 14.375 29.5833C15.1805 30.4167 16.0555 31.1389 17 31.75C17.9444 32.3611 18.9444 32.8333 20 33.1667C21.0555 32.8333 22.0555 32.3611 23 31.75C23.9444 31.1389 24.8194 30.4167 25.625 29.5833C24.7638 29.1945 23.8611 28.8889 22.9166 28.6667C21.9722 28.4445 21 28.3333 20 28.3333Z" fill="white"/>
</g>
</svg>
