<svg width="40" height="40" viewBox="0 0 40 40" fill="none" xmlns="http://www.w3.org/2000/svg">
<mask id="mask0_133_7" style="mask-type:alpha" maskUnits="userSpaceOnUse" x="0" y="0" width="40" height="40">
<rect width="40" height="40" fill="#D9D9D9"/>
</mask>
<g mask="url(#mask0_133_7)">
<path d="M20 36.6667C17.6945 36.6667 15.5278 36.2292 13.5 35.3542C11.4723 34.4792 9.70837 33.2917 8.20837 31.7917C6.70837 30.2917 5.52087 28.5278 4.64587 26.5C3.77087 24.4722 3.33337 22.3056 3.33337 20C3.33337 17.6944 3.77087 15.5278 4.64587 13.5C5.52087 11.4722 6.70837 9.70834 8.20837 8.20834C9.70837 6.70834 11.4723 5.52084 13.5 4.64584C15.5278 3.77084 17.6945 3.33334 20 3.33334C22.3056 3.33334 24.4723 3.77084 26.5 4.64584C28.5278 5.52084 30.2917 6.70834 31.7917 8.20834C33.2917 9.70834 34.4792 11.4722 35.3542 13.5C36.2292 15.5278 36.6667 17.6944 36.6667 20C36.6667 22.3056 36.2292 24.4722 35.3542 26.5C34.4792 28.5278 33.2917 30.2917 31.7917 31.7917C30.2917 33.2917 28.5278 34.4792 26.5 35.3542C24.4723 36.2292 22.3056 36.6667 20 36.6667ZM20 33.3333C23.7223 33.3333 26.875 32.0417 29.4584 29.4583C32.0417 26.875 33.3334 23.7222 33.3334 20C33.3334 16.2778 32.0417 13.125 29.4584 10.5417C26.875 7.95834 23.7223 6.66667 20 6.66667C16.2778 6.66667 13.125 7.95834 10.5417 10.5417C7.95837 13.125 6.66671 16.2778 6.66671 20C6.66671 23.7222 7.95837 26.875 10.5417 29.4583C13.125 32.0417 16.2778 33.3333 20 33.3333ZM20 30C22.7778 30 25.1389 29.0278 27.0834 27.0833C29.0278 25.1389 30 22.7778 30 20C30 18.5833 29.7362 17.2708 29.2084 16.0625C28.6806 14.8542 27.9723 13.8056 27.0834 12.9167L24.7084 15.2917C25.3195 15.9028 25.7987 16.6111 26.1459 17.4167C26.4931 18.2222 26.6667 19.0833 26.6667 20C26.6667 21.8333 26.0139 23.4028 24.7084 24.7083C23.4028 26.0139 21.8334 26.6667 20 26.6667C18.1667 26.6667 16.5973 26.0139 15.2917 24.7083C13.9862 23.4028 13.3334 21.8333 13.3334 20C13.3334 19.0833 13.507 18.2222 13.8542 17.4167C14.2014 16.6111 14.6806 15.9028 15.2917 15.2917L12.9167 12.9167C12.0278 13.8056 11.3195 14.8542 10.7917 16.0625C10.2639 17.2708 10 18.5833 10 20C10 22.7778 10.9723 25.1389 12.9167 27.0833C14.8612 29.0278 17.2223 30 20 30ZM18.3334 20H21.6667V10H18.3334V20Z" fill="white"/>
</g>
</svg>
